<mxfile host="app.diagrams.net" modified="2023-08-24T01:57:20.732Z" agent="Mozilla/5.0 (Macintosh; Intel Mac OS X 10_15_7) AppleWebKit/537.36 (KHTML, like Gecko) Chrome/115.0.0.0 Safari/537.36" version="21.6.9" etag="Xkj8QzR85QkizIyaKmbT" type="github">
  <diagram name="第 1 页" id="zg-HN3VnMHnal7h1sPgx">
    <mxGraphModel>
      <root>
        <mxCell id="0" />
        <mxCell id="1" parent="0" />
      </root>
    </mxGraphModel>
  </diagram>
</mxfile>
